<?xml version="1.0" encoding="UTF-8" standalone="no"?>
<svg
   xmlns:dc="http://purl.org/dc/elements/1.1/"
   xmlns:cc="http://creativecommons.org/ns#"
   xmlns:rdf="http://www.w3.org/1999/02/22-rdf-syntax-ns#"
   xmlns:svg="http://www.w3.org/2000/svg"
   xmlns="http://www.w3.org/2000/svg"
   xmlns:sodipodi="http://sodipodi.sourceforge.net/DTD/sodipodi-0.dtd"
   xmlns:inkscape="http://www.inkscape.org/namespaces/inkscape"
   width="20.264584mm"
   height="20.769339mm"
   viewBox="0 0 20.264584 20.769339"
   version="1.1"
   id="svg8"
   sodipodi:docname="helicoidale_3D.svg"
   inkscape:version="1.0 (9f2f71dc58, 2020-08-02)">
  <defs
     id="defs2" />
  <sodipodi:namedview
     id="base"
     pagecolor="#ffffff"
     bordercolor="#666666"
     borderopacity="1.0"
     inkscape:pageopacity="0.0"
     inkscape:pageshadow="2"
     inkscape:zoom="2.86"
     inkscape:cx="156.07504"
     inkscape:cy="20.694202"
     inkscape:document-units="mm"
     inkscape:current-layer="layer1"
     inkscape:document-rotation="0"
     showgrid="false"
     inkscape:window-width="1853"
     inkscape:window-height="1025"
     inkscape:window-x="67"
     inkscape:window-y="27"
     inkscape:window-maximized="1"
     inkscape:snap-page="true"
     inkscape:snap-object-midpoints="true"
     fit-margin-top="0"
     fit-margin-left="0"
     fit-margin-right="0"
     fit-margin-bottom="0" />
  <metadata
     id="metadata5">
    <rdf:RDF>
      <cc:Work
         rdf:about="">
        <dc:format>image/svg+xml</dc:format>
        <dc:type
           rdf:resource="http://purl.org/dc/dcmitype/StillImage" />
        <dc:title></dc:title>
      </cc:Work>
    </rdf:RDF>
  </metadata>
  <g
     inkscape:label="Calque 1"
     inkscape:groupmode="layer"
     id="layer1"
     transform="translate(10.132292,10.384669)" />
  <g
     credits="Auteur : Raphaël ALLAIS - Éduscol-STI"
     id="g853"
     transform="translate(10.132292,10.384669)">
    <path
       d="M 4.7863,0.1234 4.7457,0.1454 4.6624,0.1821 4.5746,0.2101 4.4828,0.2291 4.3872,0.2392 4.2882,0.2403 4.1863,0.2324 4.0818,0.2155 3.9752,0.1897 3.8668,0.1551 3.7571,0.1118 3.6465,0.0601 3.5355,0 3.4245,-0.0681 3.314,-0.144 3.2043,-0.2274 3.0959,-0.3179 2.9893,-0.4153 2.8848,-0.5191 2.7829,-0.6288 2.6839,-0.7442 2.5883,-0.8646 2.4965,-0.9897 2.4087,-1.119 2.3254,-1.2519 2.2469,-1.3879 2.1734,-1.5265 2.1054,-1.6671 2.043,-1.8092 1.9864,-1.9522 1.936,-2.0956 1.8919,-2.2388 1.8543,-2.3811 1.8233,-2.5222 1.7991,-2.6613 1.7817,-2.798 1.7713,-2.9317 1.7678,-3.0619 v 0 L 1.7713,-3.188 1.7817,-3.3096 1.7991,-3.4263 1.8233,-3.5374 1.8543,-3.6427 1.8919,-3.7416 1.936,-3.8338 1.9864,-3.919 2.043,-3.9967 l 0.0624,-0.0701 0.068,-0.062 0.0735,-0.0538 0.0379,-0.0233 -7.0711,4.0825 -0.0379,0.0233 -0.0734,0.0538 -0.0681,0.062 -0.0624,0.0701 -0.0565,0.0777 -0.0505,0.0851 -0.0441,0.0923 -0.0376,0.0989 -0.031,0.1052 -0.0242,0.1112 -0.0174,0.1166 -0.0104,0.1217 -0.0035,0.1261 v 0 l 0.0035,0.1302 0.0104,0.1337 0.0174,0.1367 0.0242,0.1391 0.031,0.1411 0.0376,0.1423 0.0441,0.1432 0.0505,0.1433 0.0565,0.1431 0.0624,0.1421 0.0681,0.1406 0.0734,0.1386 0.0785,0.136 0.0833,0.1329 0.0878,0.1292 0.0918,0.1251 0.0956,0.1205 0.099,0.1154 0.1019,0.1097 0.1045,0.1038 0.1066,0.0973 0.1084,0.0906 0.1097,0.0834 0.1106,0.0759 0.111,0.0681 0.111,0.06 0.1105,0.0518 0.1097,0.0433 0.1084,0.0346 0.1066,0.0258 0.1045,0.0169 0.1019,0.0079 0.099,-0.0011 0.0956,-0.0101 0.0918,-0.0191 0.0878,-0.0279 0.0833,-0.0367 0.0406,-0.022 z"
       stroke="#0000ff"
       stroke-width="0.5"
       style="fill:none"
       profondeur="-57140.74528935057"
       id="path837" />
    <path
       d="m 1.7678,-3.0619 -0.0214,0.2843 0.0062,0.2963 0.0332,0.3038 0.0592,0.3069 0.0836,0.3055 0.1062,0.2997 0.1264,0.2893 0.1443,0.2748 0.1592,0.2562 0.171,0.2339 0.1797,0.2083 0.1849,0.1797 0.1866,0.1486 0.1849,0.1155 0.1797,0.0808 0.171,0.0452 L 3.8817,0.5761 4.026,0.5496 4.1322,0.501 M 0.7468,-3.3179 v 0 L 0.3601,-2.98 0.2302,-2.7822 0.1262,-2.5576 0.0493,-2.3094 0,-2.0412 l -0.0214,0.2843 0.0062,0.2962 0.0333,0.3038 0.0591,0.3069 0.0836,0.3056 0.1062,0.2996 0.1265,0.2893 0.1442,0.2748 0.1592,0.2562 0.171,0.234 L 1.0476,1.0178 1.2325,1.1975 1.4191,1.346 1.604,1.4615 1.7837,1.5423 1.9548,1.5875 2.1139,1.5967 2.2582,1.5702 2.3645,1.5216 M -1.021,-2.2973 v 0 l -0.3867,0.3379 -0.1299,0.1978 -0.1039,0.2246 -0.077,0.2482 -0.0493,0.2682 -0.0214,0.2843 0.0063,0.2962 0.0332,0.3038 0.0592,0.3069 0.0836,0.3056 0.1061,0.2996 0.1265,0.2893 0.1442,0.2748 0.1592,0.2562 0.1711,0.234 0.1796,0.2083 0.1849,0.1797 0.1867,0.1486 0.1849,0.1154 L 0.0159,2.5629 0.187,2.6081 0.3462,2.6174 0.4904,2.5908 0.5967,2.5422 m -3.3854,-3.8189 v 0 l -0.3868,0.3379 -0.1298,0.1978 -0.104,0.2246 -0.0769,0.2482 L -3.5355,0 l -0.0214,0.2843 0.0062,0.2962 0.0332,0.3038 0.0592,0.307 0.0836,0.3055 0.1062,0.2996 0.1264,0.2893 0.1443,0.2748 0.1592,0.2562 0.171,0.234 0.1797,0.2083 0.1849,0.1797 0.1866,0.1486 0.1849,0.1154 0.1797,0.0808 0.171,0.0452 0.1592,0.0093 0.1443,-0.0266 0.1062,-0.0485 m -3.3854,-3.819 v 0 l -0.3867,0.3379 -0.1299,0.1978 -0.104,0.2246 -0.0769,0.2482"
       stroke="#ff0000"
       stroke-width="0.5"
       style="fill:none"
       profondeur="-1000"
       id="path839" />
    <path
       d="M 4.7863,0.1234 4.7457,0.1454 4.6624,0.1821 4.5746,0.2101 4.4828,0.2291 4.3872,0.2392 4.2882,0.2403 4.1863,0.2324 4.0818,0.2155 3.9752,0.1897 3.8668,0.1551 3.7571,0.1118 3.6465,0.0601 3.5355,0 3.4245,-0.0681 3.314,-0.144 3.2043,-0.2274 3.0959,-0.3179 2.9893,-0.4153 2.8848,-0.5191 2.7829,-0.6288 2.6839,-0.7442 2.5883,-0.8646 2.4965,-0.9897 2.4087,-1.119 2.3254,-1.2519 2.2469,-1.3879 2.1734,-1.5265 2.1054,-1.6671 2.043,-1.8092 1.9864,-1.9522 1.936,-2.0956 1.8919,-2.2388 1.8543,-2.3811 1.8233,-2.5222 1.7991,-2.6613 1.7817,-2.798 1.7713,-2.9317 1.7678,-3.0619 v 0 L 1.7713,-3.188 1.7817,-3.3096 1.7991,-3.4263 1.8233,-3.5374 1.8543,-3.6427 1.8919,-3.7416 1.936,-3.8338 1.9864,-3.919 2.043,-3.9967 l 0.0624,-0.0701 0.068,-0.062 0.0735,-0.0538 0.0379,-0.0233 -7.0711,4.0825 -0.0379,0.0233 -0.0734,0.0538 -0.0681,0.062 -0.0624,0.0701 -0.0565,0.0777 -0.0505,0.0851 -0.0441,0.0923 -0.0376,0.0989 -0.031,0.1052 -0.0242,0.1112 -0.0174,0.1166 -0.0104,0.1217 -0.0035,0.1261 v 0 l 0.0035,0.1302 0.0104,0.1337 0.0174,0.1367 0.0242,0.1391 0.031,0.1411 0.0376,0.1423 0.0441,0.1432 0.0505,0.1433 0.0565,0.1431 0.0624,0.1421 0.0681,0.1406 0.0734,0.1386 0.0785,0.136 0.0833,0.1329 0.0878,0.1292 0.0918,0.1251 0.0956,0.1205 0.099,0.1154 0.1019,0.1097 0.1045,0.1038 0.1066,0.0973 0.1084,0.0906 0.1097,0.0834 0.1106,0.0759 0.111,0.0681 0.111,0.06 0.1105,0.0518 0.1097,0.0433 0.1084,0.0346 0.1066,0.0258 0.1045,0.0169 0.1019,0.0079 0.099,-0.0011 0.0956,-0.0101 0.0918,-0.0191 0.0878,-0.0279 0.0833,-0.0367 0.0406,-0.022 z"
       stroke="#0000ff"
       stroke-width="0.5"
       style="fill:#ffffff"
       profondeur="-0.0005714074528935057"
       id="path841" />
    <path
       d="M 7.0711,-4.0825 -7.0711,4.0825"
       stroke="#ff0000"
       stroke-width="0.5"
       style="stroke-linecap:round"
       profondeur="0.0"
       id="path843" />
    <path
       d="m 2.2848,-4.2059 0.0406,-0.022 0.0833,-0.0367 0.0878,-0.0279 0.0918,-0.0191 0.0956,-0.0101 0.099,-0.0011 0.1019,0.0079 0.1045,0.0169 0.1066,0.0258 0.1084,0.0346 0.1097,0.0433 0.1105,0.0518 0.111,0.06 0.111,0.0681 0.1106,0.0759 0.1097,0.0834 0.1084,0.0906 0.1066,0.0973 0.1045,0.1038 0.1019,0.1097 0.099,0.1154 0.0956,0.1205 0.0918,0.1251 0.0878,0.1292 0.0833,0.1329 0.0785,0.136 0.0734,0.1386 0.0681,0.1406 0.0624,0.1421 0.0565,0.1431 0.0505,0.1433 0.0441,0.1432 0.0376,0.1423 0.031,0.1411 0.0242,0.1391 0.0174,0.1367 0.0104,0.1337 0.0035,0.1302 L 5.2998,-0.8945 5.2894,-0.7728 5.272,-0.6562 5.2478,-0.545 5.2168,-0.4398 5.1792,-0.3409 5.1351,-0.2486 5.0846,-0.1635 5.0281,-0.0858 4.9657,-0.0157 4.8976,0.0463 4.8242,0.1001 4.7863,0.1234 -2.2848,4.2059 -2.2469,4.1826 -2.1734,4.1288 -2.1054,4.0668 -2.043,3.9967 -1.9864,3.919 -1.936,3.8338 -1.8919,3.7416 -1.8543,3.6427 -1.8233,3.5374 -1.7991,3.4263 -1.7817,3.3096 -1.7713,3.188 -1.7678,3.0619 -1.7713,2.9317 -1.7817,2.798 -1.7991,2.6613 -1.8233,2.5222 -1.8543,2.3811 -1.8919,2.2388 -1.936,2.0956 -1.9864,1.9522 -2.043,1.8092 -2.1054,1.6671 -2.1734,1.5265 -2.2469,1.3879 -2.3254,1.2519 -2.4087,1.119 -2.4965,0.9897 -2.5883,0.8646 -2.6839,0.7442 -2.7829,0.6288 -2.8848,0.5191 -2.9893,0.4153 -3.0959,0.3179 -3.2043,0.2274 -3.314,0.144 -3.4245,0.0681 -3.5355,0 l -0.111,-0.0601 -0.1106,-0.0517 -0.1097,-0.0433 -0.1084,-0.0346 -0.1066,-0.0258 -0.1045,-0.0169 -0.1019,-0.0079 -0.099,0.0011 -0.0956,0.0101 -0.0918,0.019 -0.0878,0.028 -0.0833,0.0367 -0.0406,0.022 z"
       stroke="#0000ff"
       stroke-width="0.5"
       style="fill:#ffffff"
       profondeur="0.0005714074528935059"
       id="path845" />
    <path
       d="m 4.1322,0.501 v 0 L 4.3422,0.2652 4.4013,0.1082 4.4346,-0.0756 4.4408,-0.2829 4.4194,-0.5103 4.3701,-0.7538 4.2932,-1.0092 4.1892,-1.2722 4.0593,-1.5383 3.905,-1.803 3.7282,-2.0618 3.531,-2.3103 3.316,-2.5442 3.0861,-2.7596 2.8444,-2.9528 2.594,-3.1202 2.3384,-3.2591 2.081,-3.3669 1.8254,-3.4415 l -0.2503,-0.04 -0.2418,-0.0044 -0.2299,0.0316 -0.215,0.0674 -0.1416,0.069 m 1.6177,4.8395 v 0 L 2.5744,1.2858 2.6336,1.1288 2.6668,0.9451 2.6731,0.7377 2.6517,0.5103 2.6024,0.2668 2.5254,0.0114 2.4214,-0.2516 2.2916,-0.5177 2.1373,-0.7824 1.9604,-1.0412 1.7632,-1.2897 1.5483,-1.5236 1.3184,-1.739 1.0766,-1.9321 0.8262,-2.0996 0.5706,-2.2385 0.3133,-2.3462 0.0577,-2.4209 l -0.2504,-0.0399 -0.2418,-0.0044 -0.2299,0.0315 -0.2149,0.0674 -0.1417,0.069 m 1.6177,4.8395 v 0 L 0.8066,2.3064 0.8658,2.1495 0.8991,1.9657 0.9053,1.7583 0.8839,1.5309 0.8346,1.2875 0.7576,1.0321 0.6537,0.7691 0.5238,0.503 0.3695,0.2383 0.1926,-0.0205 -0.0046,-0.269 -0.2195,-0.503 -0.4494,-0.7184 -0.6912,-0.9115 -0.9415,-1.079 l -0.2556,-0.1389 -0.2574,-0.1077 -0.2556,-0.0746 -0.2504,-0.04 -0.2417,-0.0044 -0.2299,0.0316 -0.215,0.0674 -0.1416,0.0689 m 1.6176,4.8396 v 0 L -0.9611,3.327 -0.902,3.1701 -0.8687,2.9863 -0.8625,2.7789 -0.8839,2.5516 -0.9332,2.3081 -1.0101,2.0527 -1.1141,1.7897 -1.244,1.5236 -1.3983,1.2589 -1.5751,1.0001 -1.7723,0.7516 -1.9873,0.5176 -2.2172,0.3022 -2.4589,0.1091 -2.7093,-0.0584 -2.9649,-0.1972 -3.2223,-0.305 -3.4779,-0.3796 -3.7283,-0.4196 -3.97,-0.424 l -0.2299,0.0316 -0.215,0.0674 -0.1416,0.0689"
       stroke="#ff0000"
       stroke-width="0.5"
       style="fill:none"
       profondeur="1000"
       id="path847" />
    <path
       d="m 2.2848,-4.2059 0.0406,-0.022 0.0833,-0.0367 0.0878,-0.0279 0.0918,-0.0191 0.0956,-0.0101 0.099,-0.0011 0.1019,0.0079 0.1045,0.0169 0.1066,0.0258 0.1084,0.0346 0.1097,0.0433 0.1105,0.0518 0.111,0.06 0.111,0.0681 0.1106,0.0759 0.1097,0.0834 0.1084,0.0906 0.1066,0.0973 0.1045,0.1038 0.1019,0.1097 0.099,0.1154 0.0956,0.1205 0.0918,0.1251 0.0878,0.1292 0.0833,0.1329 0.0785,0.136 0.0734,0.1386 0.0681,0.1406 0.0624,0.1421 0.0565,0.1431 0.0505,0.1433 0.0441,0.1432 0.0376,0.1423 0.031,0.1411 0.0242,0.1391 0.0174,0.1367 0.0104,0.1337 0.0035,0.1302 L 5.2998,-0.8945 5.2894,-0.7728 5.272,-0.6562 5.2478,-0.545 5.2168,-0.4398 5.1792,-0.3409 5.1351,-0.2486 5.0846,-0.1635 5.0281,-0.0858 4.9657,-0.0157 4.8976,0.0463 4.8242,0.1001 4.7863,0.1234 -2.2848,4.2059 -2.2469,4.1826 -2.1734,4.1288 -2.1054,4.0668 -2.043,3.9967 -1.9864,3.919 -1.936,3.8338 -1.8919,3.7416 -1.8543,3.6427 -1.8233,3.5374 -1.7991,3.4263 -1.7817,3.3096 -1.7713,3.188 -1.7678,3.0619 -1.7713,2.9317 -1.7817,2.798 -1.7991,2.6613 -1.8233,2.5222 -1.8543,2.3811 -1.8919,2.2388 -1.936,2.0956 -1.9864,1.9522 -2.043,1.8092 -2.1054,1.6671 -2.1734,1.5265 -2.2469,1.3879 -2.3254,1.2519 -2.4087,1.119 -2.4965,0.9897 -2.5883,0.8646 -2.6839,0.7442 -2.7829,0.6288 -2.8848,0.5191 -2.9893,0.4153 -3.0959,0.3179 -3.2043,0.2274 -3.314,0.144 -3.4245,0.0681 -3.5355,0 l -0.111,-0.0601 -0.1106,-0.0517 -0.1097,-0.0433 -0.1084,-0.0346 -0.1066,-0.0258 -0.1045,-0.0169 -0.1019,-0.0079 -0.099,0.0011 -0.0956,0.0101 -0.0918,0.019 -0.0878,0.028 -0.0833,0.0367 -0.0406,0.022 z"
       stroke="#0000ff"
       stroke-width="0.5"
       style="fill:none"
       profondeur="57140.74528935059"
       id="path849" />
    <path
       d="M 0,-2.0412 V -6.1237"
       stroke="#0000ff"
       stroke-width="0.5"
       style="stroke-linecap:round"
       profondeur="28867513459.481285"
       id="path851" />
  </g>
</svg>
