<?xml version="1.0" encoding="UTF-8" standalone="no"?>
<svg
   xmlns:dc="http://purl.org/dc/elements/1.1/"
   xmlns:cc="http://creativecommons.org/ns#"
   xmlns:rdf="http://www.w3.org/1999/02/22-rdf-syntax-ns#"
   xmlns:svg="http://www.w3.org/2000/svg"
   xmlns="http://www.w3.org/2000/svg"
   xmlns:sodipodi="http://sodipodi.sourceforge.net/DTD/sodipodi-0.dtd"
   xmlns:inkscape="http://www.inkscape.org/namespaces/inkscape"
   id="svg8"
   version="1.1"
   viewBox="0 0 20.264584 20.769339"
   height="20.769339mm"
   width="20.264584mm"
   sodipodi:docname="helicoidale_2D_cote.svg"
   inkscape:version="1.0 (9f2f71dc58, 2020-08-02)">
  <defs
     id="defs2" />
  <sodipodi:namedview
     id="base"
     pagecolor="#ffffff"
     bordercolor="#666666"
     borderopacity="1.0"
     inkscape:pageopacity="0.0"
     inkscape:pageshadow="2"
     inkscape:zoom="3.959798"
     inkscape:cx="43.838519"
     inkscape:cy="53.811797"
     inkscape:document-units="mm"
     inkscape:current-layer="layer1"
     inkscape:document-rotation="0"
     showgrid="false"
     inkscape:window-width="1853"
     inkscape:window-height="1025"
     inkscape:window-x="67"
     inkscape:window-y="27"
     inkscape:window-maximized="1"
     inkscape:snap-object-midpoints="true"
     inkscape:snap-page="true"
     fit-margin-top="0"
     fit-margin-left="0"
     fit-margin-right="0"
     fit-margin-bottom="0" />
  <metadata
     id="metadata5">
    <rdf:RDF>
      <cc:Work
         rdf:about="">
        <dc:format>image/svg+xml</dc:format>
        <dc:type
           rdf:resource="http://purl.org/dc/dcmitype/StillImage" />
        <dc:title></dc:title>
      </cc:Work>
    </rdf:RDF>
  </metadata>
  <g
     inkscape:label="Calque 1"
     inkscape:groupmode="layer"
     id="layer1"
     transform="translate(10.132292,10.384669)" />
  <g
     credits="Auteur : Raphaël ALLAIS - Éduscol-STI"
     id="g1133"
     transform="translate(10.132292,10.384669)">
    <g
       id="g1117">
      <rect
         x="-5"
         y="-2.5"
         width="10"
         height="5"
         style="fill:#ffffff"
         id="rect1115" />
    </g>
    <g
       id="g1125">
      <path
         d="m -10,0 h 5"
         stroke="#ff0000"
         stroke-width="0.5"
         style="fill:none;stroke-linecap:round"
         id="path1119" />
      <path
         d="m 5,0 h 5"
         stroke="#ff0000"
         stroke-width="0.5"
         style="fill:none;stroke-linecap:round"
         id="path1121" />
      <path
         d="m -5,0 0.101,-0.2511 0.101,-0.2351 0.101,-0.2039 0.101,-0.1596 0.1011,-0.1052 0.101,-0.044 0.101,0.0201 0.101,0.0828 0.101,0.1403 0.101,0.1886 0.101,0.2251 0.101,0.2469 0.101,0.2531 0.101,0.2429 0.1011,0.2173 0.101,0.1776 0.101,0.1266 0.101,0.0674 0.101,0.004 0.101,-0.0597 0.101,-0.1195 0.101,-0.1718 0.101,-0.213 0.101,-0.2405 0.1011,-0.2527 0.101,-0.2486 0.101,-0.2286 0.101,-0.194 0.101,-0.1469 0.101,-0.0903 0.101,-0.0281 0.101,0.0361 0.101,0.0978 0.101,0.1533 0.1011,0.199 0.101,0.232 0.101,0.25 0.101,0.252 0.101,0.2379 0.101,0.2086 0.101,0.1658 0.101,0.1124 0.101,0.0519 0.101,-0.0121 0.1011,-0.0752 0.101,-0.1335 0.101,-0.1832 0.101,-0.2212 0.101,-0.2451 0.101,-0.2532 0.101,-0.2451 0.101,-0.2212 0.101,-0.1832 0.101,-0.1335 0.1011,-0.0752 0.101,-0.0121 0.101,0.0519 0.101,0.1124 0.101,0.1658 0.101,0.2086 0.101,0.2379 0.101,0.252 0.101,0.25 0.101,0.232 0.1011,0.199 0.101,0.1533 0.101,0.0978 0.101,0.0361 0.101,-0.0281 0.101,-0.0903 0.101,-0.1469 0.101,-0.194 0.101,-0.2286 0.101,-0.2486 0.1011,-0.2527 0.101,-0.2405 0.101,-0.213 0.101,-0.1718 0.101,-0.1195 0.101,-0.0597 0.101,0.004 0.101,0.0674 0.101,0.1266 0.101,0.1776 0.1011,0.2173 0.101,0.2429 0.101,0.2531 0.101,0.2469 0.101,0.2251 0.101,0.1886 0.101,0.1403 0.101,0.0828 0.101,0.0201 0.101,-0.044 L 4.596,0.8497 4.697,0.6901 4.798,0.4862 4.899,0.2511"
         stroke="#ff0000"
         stroke-width="0.5"
         style="fill:none;stroke-linecap:round"
         id="path1123" />
    </g>
    <g
       id="g1131">
      <rect
         x="-5"
         y="-2.5"
         width="10"
         height="5"
         style="fill:none"
         stroke="#0000ff"
         stroke-width="0.5"
         id="rect1127" />
      <path
         d="M 0,2.5 V 5 Z"
         stroke="#0000ff"
         stroke-width="0.5"
         id="path1129" />
    </g>
  </g>
</svg>
