<?xml version="1.0" encoding="UTF-8" standalone="no"?>
<svg
   xmlns:dc="http://purl.org/dc/elements/1.1/"
   xmlns:cc="http://creativecommons.org/ns#"
   xmlns:rdf="http://www.w3.org/1999/02/22-rdf-syntax-ns#"
   xmlns:svg="http://www.w3.org/2000/svg"
   xmlns="http://www.w3.org/2000/svg"
   xmlns:sodipodi="http://sodipodi.sourceforge.net/DTD/sodipodi-0.dtd"
   xmlns:inkscape="http://www.inkscape.org/namespaces/inkscape"
   width="20.264584mm"
   height="20.769339mm"
   viewBox="0 0 20.264584 20.769339"
   version="1.1"
   id="svg8"
   sodipodi:docname="pivot_glissant_3D.svg"
   inkscape:version="1.0 (9f2f71dc58, 2020-08-02)">
  <defs
     id="defs2" />
  <sodipodi:namedview
     id="base"
     pagecolor="#ffffff"
     bordercolor="#666666"
     borderopacity="1.0"
     inkscape:pageopacity="0.0"
     inkscape:pageshadow="2"
     inkscape:zoom="3.959798"
     inkscape:cx="87.10214"
     inkscape:cy="63.943137"
     inkscape:document-units="mm"
     inkscape:current-layer="layer1"
     inkscape:document-rotation="0"
     showgrid="false"
     inkscape:window-width="1666"
     inkscape:window-height="759"
     inkscape:window-x="117"
     inkscape:window-y="114"
     inkscape:window-maximized="0"
     fit-margin-top="0"
     fit-margin-left="0"
     fit-margin-right="0"
     fit-margin-bottom="0" />
  <metadata
     id="metadata5">
    <rdf:RDF>
      <cc:Work
         rdf:about="">
        <dc:format>image/svg+xml</dc:format>
        <dc:type
           rdf:resource="http://purl.org/dc/dcmitype/StillImage" />
        <dc:title></dc:title>
      </cc:Work>
    </rdf:RDF>
  </metadata>
  <g
     inkscape:label="Calque 1"
     inkscape:groupmode="layer"
     id="layer1"
     transform="translate(10.135012,11.063045)" />
  <g
     credits="Auteur : Raphaël ALLAIS - Éduscol-STI"
     id="g845"
     transform="translate(10.135012,11.063045)">
    <path
       d="M 4.7863,0.1234 4.7457,0.1454 4.6624,0.1821 4.5746,0.2101 4.4828,0.2291 4.3872,0.2392 4.2882,0.2403 4.1863,0.2324 4.0818,0.2155 3.9752,0.1897 3.8668,0.1551 3.7571,0.1118 3.6465,0.0601 3.5355,0 3.4245,-0.0681 3.314,-0.144 3.2043,-0.2274 3.0959,-0.3179 2.9893,-0.4153 2.8848,-0.5191 2.7829,-0.6288 2.6839,-0.7442 2.5883,-0.8646 2.4965,-0.9897 2.4087,-1.119 2.3254,-1.2519 2.2469,-1.3879 2.1734,-1.5265 2.1054,-1.6671 2.043,-1.8092 1.9864,-1.9522 1.936,-2.0956 1.8919,-2.2388 1.8543,-2.3811 1.8233,-2.5222 1.7991,-2.6613 1.7817,-2.798 1.7713,-2.9317 1.7678,-3.0619 v 0 L 1.7713,-3.188 1.7817,-3.3096 1.7991,-3.4263 1.8233,-3.5374 1.8543,-3.6427 1.8919,-3.7416 1.936,-3.8338 1.9864,-3.919 2.043,-3.9967 l 0.0624,-0.0701 0.068,-0.062 0.0735,-0.0538 0.0379,-0.0233 -7.0711,4.0825 -0.0379,0.0233 -0.0734,0.0538 -0.0681,0.062 -0.0624,0.0701 -0.0565,0.0777 -0.0505,0.0851 -0.0441,0.0923 -0.0376,0.0989 -0.031,0.1052 -0.0242,0.1112 -0.0174,0.1166 -0.0104,0.1217 -0.0035,0.1261 v 0 l 0.0035,0.1302 0.0104,0.1337 0.0174,0.1367 0.0242,0.1391 0.031,0.1411 0.0376,0.1423 0.0441,0.1432 0.0505,0.1433 0.0565,0.1431 0.0624,0.1421 0.0681,0.1406 0.0734,0.1386 0.0785,0.136 0.0833,0.1329 0.0878,0.1292 0.0918,0.1251 0.0956,0.1205 0.099,0.1154 0.1019,0.1097 0.1045,0.1038 0.1066,0.0973 0.1084,0.0906 0.1097,0.0834 0.1106,0.0759 0.111,0.0681 0.111,0.06 0.1105,0.0518 0.1097,0.0433 0.1084,0.0346 0.1066,0.0258 0.1045,0.0169 0.1019,0.0079 0.099,-0.0011 0.0956,-0.0101 0.0918,-0.0191 0.0878,-0.0279 0.0833,-0.0367 0.0406,-0.022 z"
       stroke="#0000ff"
       stroke-width="0.5"
       style="fill:#ffffff"
       profondeur="-0.5714074528935057"
       id="path837" />
    <path
       d="M 7.0711,-4.0825 -7.0711,4.0825"
       stroke="#ff0000"
       stroke-width="0.5"
       style="stroke-linecap:round"
       profondeur="0.0"
       id="path839" />
    <path
       d="m 2.2848,-4.2059 0.0406,-0.022 0.0833,-0.0367 0.0878,-0.0279 0.0918,-0.0191 0.0956,-0.0101 0.099,-0.0011 0.1019,0.0079 0.1045,0.0169 0.1066,0.0258 0.1084,0.0346 0.1097,0.0433 0.1105,0.0518 0.111,0.06 0.111,0.0681 0.1106,0.0759 0.1097,0.0834 0.1084,0.0906 0.1066,0.0973 0.1045,0.1038 0.1019,0.1097 0.099,0.1154 0.0956,0.1205 0.0918,0.1251 0.0878,0.1292 0.0833,0.1329 0.0785,0.136 0.0734,0.1386 0.0681,0.1406 0.0624,0.1421 0.0565,0.1431 0.0505,0.1433 0.0441,0.1432 0.0376,0.1423 0.031,0.1411 0.0242,0.1391 0.0174,0.1367 0.0104,0.1337 0.0035,0.1302 L 5.2998,-0.8945 5.2894,-0.7728 5.272,-0.6562 5.2478,-0.545 5.2168,-0.4398 5.1792,-0.3409 5.1351,-0.2486 5.0846,-0.1635 5.0281,-0.0858 4.9657,-0.0157 4.8976,0.0463 4.8242,0.1001 4.7863,0.1234 -2.2848,4.2059 -2.2469,4.1826 -2.1734,4.1288 -2.1054,4.0668 -2.043,3.9967 -1.9864,3.919 -1.936,3.8338 -1.8919,3.7416 -1.8543,3.6427 -1.8233,3.5374 -1.7991,3.4263 -1.7817,3.3096 -1.7713,3.188 -1.7678,3.0619 -1.7713,2.9317 -1.7817,2.798 -1.7991,2.6613 -1.8233,2.5222 -1.8543,2.3811 -1.8919,2.2388 -1.936,2.0956 -1.9864,1.9522 -2.043,1.8092 -2.1054,1.6671 -2.1734,1.5265 -2.2469,1.3879 -2.3254,1.2519 -2.4087,1.119 -2.4965,0.9897 -2.5883,0.8646 -2.6839,0.7442 -2.7829,0.6288 -2.8848,0.5191 -2.9893,0.4153 -3.0959,0.3179 -3.2043,0.2274 -3.314,0.144 -3.4245,0.0681 -3.5355,0 l -0.111,-0.0601 -0.1106,-0.0517 -0.1097,-0.0433 -0.1084,-0.0346 -0.1066,-0.0258 -0.1045,-0.0169 -0.1019,-0.0079 -0.099,0.0011 -0.0956,0.0101 -0.0918,0.019 -0.0878,0.028 -0.0833,0.0367 -0.0406,0.022 z"
       stroke="#0000ff"
       stroke-width="0.5"
       style="fill:#ffffff"
       profondeur="0.5714074528935059"
       id="path841" />
    <path
       d="M 0,-2.0412 V -6.1237"
       stroke="#0000ff"
       stroke-width="0.5"
       style="stroke-linecap:round"
       profondeur="28867513459.481285"
       id="path843" />
  </g>
</svg>
