<?xml version="1.0" encoding="UTF-8" standalone="no"?>
<svg
   xmlns:dc="http://purl.org/dc/elements/1.1/"
   xmlns:cc="http://creativecommons.org/ns#"
   xmlns:rdf="http://www.w3.org/1999/02/22-rdf-syntax-ns#"
   xmlns:svg="http://www.w3.org/2000/svg"
   xmlns="http://www.w3.org/2000/svg"
   xmlns:sodipodi="http://sodipodi.sourceforge.net/DTD/sodipodi-0.dtd"
   xmlns:inkscape="http://www.inkscape.org/namespaces/inkscape"
   sodipodi:docname="spherique_3D.svg"
   id="svg8"
   version="1.1"
   viewBox="0 0 20.264584 20.769339"
   height="20.769339mm"
   width="20.264584mm"
   inkscape:version="1.0 (9f2f71dc58, 2020-08-02)">
  <defs
     id="defs2" />
  <sodipodi:namedview
     id="base"
     pagecolor="#ffffff"
     bordercolor="#666666"
     borderopacity="1.0"
     inkscape:pageopacity="0.0"
     inkscape:pageshadow="2"
     inkscape:zoom="5.6"
     inkscape:cx="85.114197"
     inkscape:cy="64.980362"
     inkscape:document-units="mm"
     inkscape:current-layer="g1097"
     inkscape:document-rotation="0"
     showgrid="false"
     inkscape:window-width="1853"
     inkscape:window-height="1025"
     inkscape:window-x="67"
     inkscape:window-y="27"
     inkscape:window-maximized="1"
     inkscape:snap-page="true"
     inkscape:snap-object-midpoints="true"
     fit-margin-top="0"
     fit-margin-left="0"
     fit-margin-right="0"
     fit-margin-bottom="0" />
  <metadata
     id="metadata5">
    <rdf:RDF>
      <cc:Work
         rdf:about="">
        <dc:format>image/svg+xml</dc:format>
        <dc:type
           rdf:resource="http://purl.org/dc/dcmitype/StillImage" />
        <dc:title></dc:title>
      </cc:Work>
    </rdf:RDF>
  </metadata>
  <g
     inkscape:label="Calque 1"
     inkscape:groupmode="layer"
     id="layer1"
     transform="translate(10.132292,9.8732471)" />
  <g
     credits="Auteur : Raphaël ALLAIS - Éduscol-STI"
     id="g1097"
     transform="translate(10.132292,9.8732471)">
    <path
       d="M 0,2.2862 V 4.5928"
       stroke="#0000ff"
       stroke-width="0.5"
       style="stroke-linecap:round"
       profondeur="-2.4320880089612986"
       id="path1087" />
    <path
       d="m -2.1606,-1.7787 0.0734,-0.0771 0.0816,-0.0742 0.0896,-0.0712 0.0971,-0.0677 0.1043,-0.0641 0.111,-0.0603 0.1174,-0.056 0.1232,-0.0517 0.1286,-0.0471 0.1335,-0.0424 0.1379,-0.0375 0.1416,-0.0323 0.1449,-0.0272 0.1475,-0.0219 0.1497,-0.0165 0.1511,-0.011 0.152,-0.0055 h 0.1524 l 0.152,0.0055 0.1511,0.011 0.1497,0.0165 0.1475,0.0219 0.1449,0.0272 0.1416,0.0323 0.1379,0.0375 0.1335,0.0424 0.1286,0.0471 0.1232,0.0517 0.1174,0.056 0.111,0.0603 0.1043,0.0641 0.0971,0.0677 0.0896,0.0712 0.0816,0.0742 0.0734,0.0771 0.0011,-9e-4 0.0782,0.0995 0.0736,0.1029 0.0689,0.1061 0.064,0.1091 0.0591,0.1119 0.0539,0.1145 0.0487,0.1168 0.0433,0.1188 0.038,0.1207 0.0324,0.1223 0.0269,0.1236 0.0213,0.1248 0.0157,0.1255 0.0099,0.1262 0.0042,0.1264 L 2.7984,0.096 2.7912,0.2223 2.7783,0.3482 2.7597,0.4734 2.7355,0.5976 2.7057,0.7205 2.6704,0.842 2.6296,0.9618 2.5835,1.0796 2.5321,1.1952 2.4755,1.3084 2.4139,1.4189 2.3473,1.5265 2.276,1.631 2.1999,1.7321 2.1195,1.8297 2.0346,1.9236 1.9457,2.0136 1.8527,2.0994 1.756,2.181 1.6556,2.2581 1.552,2.3305 1.4451,2.3983 1.3353,2.4611 1.2227,2.5189 1.1077,2.5716 0.9904,2.619 0.871,2.6611 0.7499,2.6977 0.6273,2.7288 0.5034,2.7544 0.3784,2.7743 0.2527,2.7886 0.1265,2.7971 0,2.8 -0.1265,2.7971 -0.2527,2.7886 -0.3784,2.7743 -0.5034,2.7544 -0.6273,2.7288 -0.7499,2.6977 -0.871,2.6611 -0.9904,2.619 -1.1077,2.5716 -1.2227,2.5189 -1.3353,2.4611 -1.4451,2.3983 -1.552,2.3305 -1.6556,2.2581 -1.756,2.181 -1.8527,2.0994 -1.9457,2.0136 -2.0346,1.9236 -2.1195,1.8297 -2.1999,1.7321 -2.276,1.631 -2.3473,1.5265 -2.4139,1.4189 -2.4755,1.3084 -2.5321,1.1952 -2.5835,1.0796 -2.6296,0.9618 -2.6704,0.842 -2.7057,0.7205 -2.7355,0.5976 -2.7597,0.4734 -2.7783,0.3482 -2.7912,0.2223 -2.7984,0.096 l -0.0014,-0.1265 0.0042,-0.1264 0.0099,-0.1262 0.0157,-0.1255 0.0213,-0.1248 0.0269,-0.1236 0.0324,-0.1223 0.038,-0.1207 0.0433,-0.1188 0.0487,-0.1168 0.0539,-0.1145 0.0591,-0.1119 0.064,-0.1091 0.0689,-0.1061 0.0736,-0.1029 0.0782,-0.0995 z"
       stroke="#0000ff"
       stroke-width="0.5"
       fill="#ffffff"
       style="stroke-linecap:round;stroke-linejoin:round"
       profondeur="-0.00001"
       id="path1089" />
    <circle
       cx="0"
       cy="0"
       r="2.5"
       stroke="#ff0000"
       stroke-width="0.5"
       style="fill:#ffffff"
       profondeur="0"
       id="circle1091" />
    <path
       d="m -2.2254,-1.6991 -0.0561,0.0818 -0.0471,0.0836 -0.0379,0.0852 -0.0285,0.0864 -0.0191,0.0873 -0.0096,0.0877 v 0.088 l 0.0096,0.0878 0.0191,0.0872 0.0285,0.0864 0.0379,0.0852 0.0471,0.0836 0.0561,0.0818 0.0648,0.0796 0.0734,0.0771 0.0816,0.0742 0.0896,0.0712 0.0971,0.0677 0.1043,0.0642 0.111,0.0602 0.1174,0.056 0.1232,0.0517 0.1286,0.0471 0.1335,0.0424 0.1379,0.0375 0.1416,0.0323 0.1449,0.0272 0.1475,0.0219 0.1497,0.0165 0.1511,0.011 0.152,0.0055 H 0.0762 L 0.2282,0.2507 0.3793,0.2397 0.529,0.2232 0.6765,0.2013 0.8214,0.1741 0.963,0.1418 1.1009,0.1043 1.2344,0.0619 1.363,0.0148 1.4862,-0.0369 1.6036,-0.0929 1.7146,-0.1531 1.8189,-0.2173 1.916,-0.285 2.0056,-0.3562 2.0872,-0.4304 2.1606,-0.5075 2.2254,-0.5871 2.2815,-0.6689 2.3286,-0.7525 2.3665,-0.8377 2.395,-0.9241 2.4141,-1.0113 2.4237,-1.0991 v -0.088 L 2.4141,-1.2748 2.395,-1.3621 2.3665,-1.4485 2.3286,-1.5337 2.2815,-1.6173 2.2254,-1.6991 2.1617,-1.7796 l 0.0782,0.0995 0.0736,0.1029 0.0689,0.1061 0.064,0.1091 0.0591,0.1119 0.0539,0.1145 0.0487,0.1168 0.0433,0.1188 0.038,0.1207 0.0324,0.1223 0.0269,0.1236 0.0213,0.1248 0.0157,0.1255 0.0099,0.1262 0.0042,0.1264 L 2.7984,0.096 2.7912,0.2223 2.7783,0.3482 2.7597,0.4734 2.7355,0.5976 2.7057,0.7205 2.6704,0.842 2.6296,0.9618 2.5835,1.0796 2.5321,1.1952 2.4755,1.3084 2.4139,1.4189 2.3473,1.5265 2.276,1.631 2.1999,1.7321 2.1195,1.8297 2.0346,1.9236 1.9457,2.0136 1.8527,2.0994 1.756,2.181 1.6556,2.2581 1.552,2.3305 1.4451,2.3983 1.3353,2.4611 1.2227,2.5189 1.1077,2.5716 0.9904,2.619 0.871,2.6611 0.7499,2.6977 0.6273,2.7288 0.5034,2.7544 0.3784,2.7743 0.2527,2.7886 0.1265,2.7971 0,2.8 -0.1265,2.7971 -0.2527,2.7886 -0.3784,2.7743 -0.5034,2.7544 -0.6273,2.7288 -0.7499,2.6977 -0.871,2.6611 -0.9904,2.619 -1.1077,2.5716 -1.2227,2.5189 -1.3353,2.4611 -1.4451,2.3983 -1.552,2.3305 -1.6556,2.2581 -1.756,2.181 -1.8527,2.0994 -1.9457,2.0136 -2.0346,1.9236 -2.1195,1.8297 -2.1999,1.7321 -2.276,1.631 -2.3473,1.5265 -2.4139,1.4189 -2.4755,1.3084 -2.5321,1.1952 -2.5835,1.0796 -2.6296,0.9618 -2.6704,0.842 -2.7057,0.7205 -2.7355,0.5976 -2.7597,0.4734 -2.7783,0.3482 -2.7912,0.2223 -2.7984,0.096 l -0.0014,-0.1265 0.0042,-0.1264 0.0099,-0.1262 0.0157,-0.1255 0.0213,-0.1248 0.0269,-0.1236 0.0324,-0.1223 0.038,-0.1207 0.0433,-0.1188 0.0487,-0.1168 0.0539,-0.1145 0.0591,-0.1119 0.064,-0.1091 0.0689,-0.1061 0.0736,-0.1029 0.0782,-0.0995 z"
       stroke="#0000ff"
       stroke-width="0.5"
       fill="#ffffff"
       style="stroke-linecap:round;stroke-linejoin:round"
       profondeur="0.00001"
       id="path1093" />
    <path
       d="M 0.3467,-1.8014 0.78,-4.0532"
       stroke="#ff0000"
       stroke-width="0.5"
       style="stroke-linecap:round"
       profondeur="2.759925276000028"
       id="path1095" />
  </g>
</svg>
