<?xml version="1.0" encoding="UTF-8" standalone="no"?>
<svg
   xmlns:dc="http://purl.org/dc/elements/1.1/"
   xmlns:cc="http://creativecommons.org/ns#"
   xmlns:rdf="http://www.w3.org/1999/02/22-rdf-syntax-ns#"
   xmlns:svg="http://www.w3.org/2000/svg"
   xmlns="http://www.w3.org/2000/svg"
   xmlns:sodipodi="http://sodipodi.sourceforge.net/DTD/sodipodi-0.dtd"
   xmlns:inkscape="http://www.inkscape.org/namespaces/inkscape"
   width="20.264584mm"
   height="20.769339mm"
   viewBox="0 0 20.264584 20.769339"
   version="1.1"
   id="svg8"
   sodipodi:docname="spherique_2D.svg"
   inkscape:version="1.0 (9f2f71dc58, 2020-08-02)">
  <defs
     id="defs2" />
  <sodipodi:namedview
     id="base"
     pagecolor="#ffffff"
     bordercolor="#666666"
     borderopacity="1.0"
     inkscape:pageopacity="0.0"
     inkscape:pageshadow="2"
     inkscape:zoom="2.8"
     inkscape:cx="169.36118"
     inkscape:cy="65.030016"
     inkscape:document-units="mm"
     inkscape:current-layer="layer1"
     inkscape:document-rotation="0"
     showgrid="false"
     inkscape:window-width="1666"
     inkscape:window-height="759"
     inkscape:window-x="117"
     inkscape:window-y="114"
     inkscape:window-maximized="0"
     inkscape:snap-object-midpoints="true"
     fit-margin-top="0"
     fit-margin-left="0"
     fit-margin-right="0"
     fit-margin-bottom="0" />
  <metadata
     id="metadata5">
    <rdf:RDF>
      <cc:Work
         rdf:about="">
        <dc:format>image/svg+xml</dc:format>
        <dc:type
           rdf:resource="http://purl.org/dc/dcmitype/StillImage" />
        <dc:title></dc:title>
      </cc:Work>
    </rdf:RDF>
  </metadata>
  <g
     inkscape:label="Calque 1"
     inkscape:groupmode="layer"
     id="layer1"
     transform="translate(10.131418,10.385543)" />
  <g
     credits="Auteur : Raphaël ALLAIS - Éduscol-STI"
     id="g875"
     transform="translate(10.131418,10.385543)">
    <g
       transform="rotate(-45)"
       id="g867">
      <circle
         cx="0"
         cy="0"
         r="2.5"
         stroke="#ff0000"
         stroke-width="0.5"
         style="fill:#ffffff"
         id="circle863" />
      <path
         d="M 2.5,0 H 5.625"
         stroke="#ff0000"
         stroke-width="0.5"
         id="path865" />
    </g>
    <g
       transform="rotate(90)"
       id="g873">
      <path
         d="m -3.75,0 0.0166,0.3529 0.0498,0.3498 0.0825,0.3435 0.1144,0.3343 0.1454,0.322 0.1751,0.3069 0.2031,0.289 0.2295,0.2687 0.2537,0.2458 0.2757,0.2209 0.2953,0.194 0.3122,0.1653 0.3264,0.1352 0.3377,0.1039 0.346,0.0716 0.3511,0.0388 L 0.1178,3.7481 0.47,3.7204 0.818,3.6597 1.1588,3.5665 1.4893,3.4416 1.8066,3.2862 2.1078,3.1016 2.3903,2.8894 2.6517,2.6517 2.8894,2.3903 3.1016,2.1078 3.2862,1.8066 3.4416,1.4893 3.5665,1.1588 3.6597,0.818 3.7204,0.47 3.7481,0.1178 3.7426,-0.2355 3.7038,-0.5866 3.6322,-0.9326 3.5283,-1.2703 3.3931,-1.5967 3.2278,-1.9089 3.0338,-2.2042 2.8129,-2.4799 2.5671,-2.7336 2.2984,-2.9631 2.0094,-3.1662 1.7025,-3.3413 1.3805,-3.4867 1.0462,-3.6011 0.7027,-3.6836 0.3529,-3.7334 0,-3.75"
         stroke="#0000ff"
         stroke-width="0.5"
         style="fill:none;stroke-linecap:round"
         id="path869" />
      <path
         d="M 3.75,0 H 7.5 Z"
         stroke="#0000ff"
         stroke-width="0.5"
         style="fill:none;stroke-linecap:round"
         id="path871" />
    </g>
  </g>
</svg>
