<?xml version="1.0" encoding="UTF-8" standalone="no"?>
<svg
   xmlns:dc="http://purl.org/dc/elements/1.1/"
   xmlns:cc="http://creativecommons.org/ns#"
   xmlns:rdf="http://www.w3.org/1999/02/22-rdf-syntax-ns#"
   xmlns:svg="http://www.w3.org/2000/svg"
   xmlns="http://www.w3.org/2000/svg"
   xmlns:sodipodi="http://sodipodi.sourceforge.net/DTD/sodipodi-0.dtd"
   xmlns:inkscape="http://www.inkscape.org/namespaces/inkscape"
   id="svg8"
   version="1.1"
   viewBox="0 0 20.264584 20.769339"
   height="20.769339mm"
   width="20.264584mm"
   sodipodi:docname="sphere-cylindre_3D.svg"
   inkscape:version="1.0 (9f2f71dc58, 2020-08-02)">
  <defs
     id="defs2" />
  <sodipodi:namedview
     id="base"
     pagecolor="#ffffff"
     bordercolor="#666666"
     borderopacity="1.0"
     inkscape:pageopacity="0.0"
     inkscape:pageshadow="2"
     inkscape:zoom="1.979899"
     inkscape:cx="212.36672"
     inkscape:cy="29.75766"
     inkscape:document-units="mm"
     inkscape:current-layer="layer1"
     inkscape:document-rotation="0"
     showgrid="false"
     inkscape:snap-object-midpoints="true"
     inkscape:snap-page="true"
     inkscape:window-width="1666"
     inkscape:window-height="759"
     inkscape:window-x="117"
     inkscape:window-y="114"
     inkscape:window-maximized="0"
     fit-margin-top="0"
     fit-margin-left="0"
     fit-margin-right="0"
     fit-margin-bottom="0" />
  <metadata
     id="metadata5">
    <rdf:RDF>
      <cc:Work
         rdf:about="">
        <dc:format>image/svg+xml</dc:format>
        <dc:type
           rdf:resource="http://purl.org/dc/dcmitype/StillImage" />
        <dc:title></dc:title>
      </cc:Work>
    </rdf:RDF>
  </metadata>
  <g
     inkscape:label="Calque 1"
     inkscape:groupmode="layer"
     id="layer1"
     transform="translate(10.132292,10.384669)" />
  <g
     credits="Auteur : Raphaël ALLAIS - Éduscol-STI"
     id="g878"
     transform="translate(10.132292,10.384669)">
    <path
       d="M 0,2.0412 V 6.1237"
       stroke="#0000ff"
       stroke-width="0.5"
       style="stroke-linecap:round"
       profondeur="-28867513459.481285"
       id="path868" />
    <path
       d="M 4.7863,0.1234 4.7092,0.1628 4.6239,0.1956 4.5343,0.2196 4.4407,0.2347 4.3436,0.2408 4.2433,0.2379 4.1401,0.226 4.0346,0.2051 3.9272,0.1754 3.8182,0.1369 3.708,0.0899 3.5972,0.0344 3.4862,-0.0293 3.3753,-0.1009 3.2651,-0.1802 3.1559,-0.2668 3.0483,-0.3604 2.9425,-0.4606 2.8391,-0.5671 2.7385,-0.6794 2.641,-0.7971 2.547,-0.9197 2.4569,-1.0467 2.3711,-1.1777 2.2899,-1.312 2.2136,-1.4492 2.1425,-1.5888 2.0769,-1.7301 2.0171,-1.8727 1.9633,-2.016 1.9156,-2.1593 1.8744,-2.3022 1.8397,-2.444 1.8117,-2.5843 1.7905,-2.7224 1.7762,-2.8578 1.7688,-2.99 1.7685,-3.1185 1.775,-3.2427 1.7886,-3.3621 1.809,-3.4764 1.8362,-3.585 1.8702,-3.6875 1.8744,-3.6985 -5.1967,0.384 -5.2009,0.395 -5.2348,0.4975 -5.2621,0.6061 -5.2825,0.7204 -5.296,0.8398 -5.3026,0.964 l 4e-4,0.1285 0.0073,0.1322 0.0143,0.1354 0.0212,0.1381 0.028,0.1403 0.0347,0.1418 0.0413,0.1429 0.0476,0.1433 0.0538,0.1433 0.0599,0.1425 0.0655,0.1414 0.0711,0.1396 0.0763,0.1372 0.0813,0.1343 0.0858,0.131 0.09,0.127 0.094,0.1226 0.0975,0.1176 0.1007,0.1124 0.1034,0.1064 0.1057,0.1003 0.1077,0.0936 0.1091,0.0866 0.1102,0.0793 0.1109,0.0716 0.1111,0.0637 0.1108,0.0554 0.1101,0.0471 0.109,0.0385 0.1075,0.0297 0.1055,0.0209 0.1031,0.0119 0.1003,0.0029 0.0971,-0.0061 0.0936,-0.0151 0.0896,-0.024 0.0853,-0.0328 0.0771,-0.0394 z"
       stroke="#0000ff"
       stroke-width="0.5"
       style="fill:#ffffff"
       profondeur="-0.8369550105093931"
       id="path870" />
    <circle
       cx="0"
       cy="0"
       r="2.5"
       stroke="#ff0000"
       stroke-width="0.5"
       style="fill:#ffffff"
       profondeur="0"
       id="circle872" />
    <path
       d="m 5.1967,-1.7803 0.0347,0.1418 0.028,0.1403 0.0212,0.1381 0.0143,0.1354 0.0073,0.1322 4e-4,0.1285 L 5.296,-0.8398 5.2825,-0.7204 5.2621,-0.6061 5.2348,-0.4975 5.2009,-0.395 5.1604,-0.299 5.1134,-0.2099 5.0603,-0.128 5.0011,-0.0537 4.9361,0.0128 4.8656,0.0712 4.7899,0.1213 4.7863,0.1234 -2.2848,4.2059 -2.2812,4.2038 -2.2054,4.1537 -2.135,4.0953 -2.07,4.0288 -2.0108,3.9545 -1.9577,3.8726 -1.9107,3.7835 -1.8702,3.6875 -1.8362,3.585 -1.809,3.4764 -1.7886,3.3621 -1.775,3.2427 -1.7685,3.1185 -1.7688,2.99 -1.7762,2.8578 -1.7905,2.7224 -1.8117,2.5843 -1.8397,2.444 -1.8744,2.3022 Z"
       stroke="#0000ff"
       stroke-width="0.5"
       style="fill:#ffffff"
       profondeur="0.9506824478873303"
       id="path874" />
    <path
       d="M 0,-2.0412 V -5.1031"
       stroke="#ff0000"
       stroke-width="0.5"
       style="stroke-linecap:round"
       profondeur="2.5259074277046136"
       id="path876" />
  </g>
</svg>
