<?xml version="1.0" encoding="UTF-8" standalone="no"?>
<svg
   xmlns:dc="http://purl.org/dc/elements/1.1/"
   xmlns:cc="http://creativecommons.org/ns#"
   xmlns:rdf="http://www.w3.org/1999/02/22-rdf-syntax-ns#"
   xmlns:svg="http://www.w3.org/2000/svg"
   xmlns="http://www.w3.org/2000/svg"
   xmlns:sodipodi="http://sodipodi.sourceforge.net/DTD/sodipodi-0.dtd"
   xmlns:inkscape="http://www.inkscape.org/namespaces/inkscape"
   width="20.264584mm"
   height="20.769339mm"
   viewBox="0 0 20.264584 20.769339"
   version="1.1"
   id="svg8"
   sodipodi:docname="sphere-cylindre_2D_bout.svg"
   inkscape:version="1.0 (9f2f71dc58, 2020-08-02)">
  <defs
     id="defs2" />
  <sodipodi:namedview
     id="base"
     pagecolor="#ffffff"
     bordercolor="#666666"
     borderopacity="1.0"
     inkscape:pageopacity="0.0"
     inkscape:pageshadow="2"
     inkscape:zoom="1.4"
     inkscape:cx="316.11897"
     inkscape:cy="31.799785"
     inkscape:document-units="mm"
     inkscape:current-layer="layer1"
     inkscape:document-rotation="0"
     showgrid="false"
     inkscape:snap-object-midpoints="true"
     inkscape:snap-page="true"
     inkscape:window-width="1666"
     inkscape:window-height="759"
     inkscape:window-x="117"
     inkscape:window-y="114"
     inkscape:window-maximized="0"
     fit-margin-top="0"
     fit-margin-left="0"
     fit-margin-right="0"
     fit-margin-bottom="0" />
  <metadata
     id="metadata5">
    <rdf:RDF>
      <cc:Work
         rdf:about="">
        <dc:format>image/svg+xml</dc:format>
        <dc:type
           rdf:resource="http://purl.org/dc/dcmitype/StillImage" />
        <dc:title></dc:title>
      </cc:Work>
    </rdf:RDF>
  </metadata>
  <g
     inkscape:label="Calque 1"
     inkscape:groupmode="layer"
     id="layer1"
     transform="translate(10.132292,10.384669)" />
  <g
     credits="Auteur : Raphaël ALLAIS - Éduscol-STI"
     id="g858"
     transform="translate(10.132292,10.384669)">
    <g
       transform="rotate(-90)"
       id="g850">
      <path
         d="M 1.1116,3.054 0.9575,3.1057 0.8011,3.1497 0.6427,3.1858 0.4827,3.214 0.3214,3.2341 0.1594,3.2461 -0.003,3.25 -0.1655,3.2458 -0.3275,3.2335 -0.4887,3.2131 -0.6487,3.1846 -0.807,3.1482 -0.9633,3.1039 -1.1173,3.0519 -1.2684,2.9923 -1.4164,2.9251 -1.5608,2.8507 -1.7013,2.7691 -1.8376,2.6806 -1.9693,2.5854 -2.096,2.4838 -2.2175,2.3759 -2.3335,2.2621 -2.4437,2.1427 -2.5477,2.0179 -2.6454,1.888 -2.7364,1.7534 -2.8206,1.6145 -2.8978,1.4715 -2.9677,1.3248 -3.0302,1.1748 -3.0852,1.0219 -3.1324,0.8664 -3.1718,0.7088 -3.2032,0.5494 -3.2267,0.3886 -3.2421,0.2269 -3.2494,0.0645 l 9e-4,-0.1624 0.0089,-0.1623 0.0171,-0.1616 0.0251,-0.1605 0.0331,-0.1591 0.041,-0.1572 0.0488,-0.155 0.0565,-0.1523 0.064,-0.1493 0.0715,-0.146 0.0786,-0.1422 0.0856,-0.1381 0.0925,-0.1336 0.099,-0.1288 0.1053,-0.1238 0.1113,-0.1183 0.1172,-0.1126 0.1226,-0.1066 0.1278,-0.1003 0.1326,-0.0939 0.1372,-0.0871 0.1414,-0.0801 0.1452,-0.0729 0.1486,-0.0656 0.1517,-0.0581 0.1545,-0.0505 0.1568,-0.0426 0.1587,-0.0348 0.1603,-0.0268 0.1614,-0.0188 0.1621,-0.0106 0.1625,-0.0026 0.1623,0.0056 0.162,0.0137 0.161,0.0218 0.1597,0.0298 0.158,0.0377 0.156,0.0456 0.1222,0.0417"
         stroke="#0000ff"
         stroke-width="0.5"
         style="fill:none"
         id="path844" />
      <path
         d="m -3.25,3.25 v -6.5 z"
         stroke="#0000ff"
         stroke-width="0.5"
         id="path846" />
      <path
         d="M -3.25,0 H -7.5 Z"
         stroke="#0000ff"
         stroke-width="0.5"
         id="path848" />
    </g>
    <g
       transform="rotate(-90)"
       id="g856">
      <circle
         cx="0"
         cy="0"
         r="2.5"
         stroke="#ff0000"
         stroke-width="0.5"
         style="fill:#ffffff"
         id="circle852" />
      <path
         d="M 2.5,0 H 5"
         stroke="#ff0000"
         stroke-width="0.5"
         id="path854" />
    </g>
  </g>
</svg>
